<?xml version="1.0" standalone="no"?>
<!DOCTYPE svg PUBLIC "-//W3C//DTD SVG 20010904//EN"
 "http://www.w3.org/TR/2001/REC-SVG-20010904/DTD/svg10.dtd">
<svg version="1.0" xmlns="http://www.w3.org/2000/svg"
 width="408.000000pt" height="408.000000pt" viewBox="0 0 408.000000 408.000000"
 preserveAspectRatio="xMidYMid meet">
<metadata>
Created by potrace 1.11, written by Peter Selinger 2001-2013
</metadata>
<g transform="translate(0.000000,408.000000) scale(0.100000,-0.100000)"
fill="#000000" stroke="none">
<path d="M1740 3829 c-895 -101 -1580 -872 -1580 -1778 0 -85 -4 -107 -23
-143 -20 -40 -22 -56 -22 -215 0 -200 3 -209 97 -256 53 -27 57 -32 88 -105
42 -102 101 -210 166 -305 30 -43 54 -82 54 -85 0 -4 -57 -46 -127 -93 -71
-47 -129 -93 -131 -102 -4 -17 118 -176 197 -258 75 -78 112 -70 289 55 51 36
95 66 98 66 3 0 53 -32 111 -71 296 -197 637 -299 1003 -299 480 0 916 176
1262 508 l47 45 67 -44 c92 -60 161 -114 245 -193 39 -36 74 -66 77 -66 4 0
52 46 108 103 130 133 158 192 118 253 -18 27 -140 111 -285 194 l-95 55 63
125 c35 69 82 185 106 257 41 125 46 135 85 163 70 50 77 73 76 245 -1 185
-18 247 -71 261 -1 0 -7 45 -13 100 -92 833 -750 1492 -1582 1583 -111 13
-318 12 -428 0z"/>
</g>
</svg>
